# xmcd CD database file
#
# Track frame offsets:
#	213
#	17160
#	30250
#	45633
#	61154
#	79302
#
# Disc length: 1296 seconds
#
# Revision: 0
# Processed by: cddbd v1.5.2PL0 Copyright (c) Steve Scherf et al.
# Submitted via: CDex 1.70beta2
#
DISCID=3e050e06
DTITLE=UC - May 2003 - Cty - Universal Country
DYEAR=2003
DGENRE=Country
TTITLE0=Deric Ruttan - When You Come rround
TTITLE1=Jamie O'Neal - Every Little Thing
TTITLE2=Joe Nichols - She Only Smokes When She Drinks
TTITLE3=Rushlow - I Can't Be Your Friend
TTITLE4=Jos Turner - Long Black Train
TTITLE5=Pat Green - Wave On Wave
EXTD=YEAR: 2003
EXTT0=
EXTT1=
EXTT2=
EXTT3=
EXTT4=
EXTT5=
PLAYORDER=
